<svg xmlns="http://www.w3.org/2000/svg">
  <symbol id="feather" viewBox="0 0 150 150">
    <title>feather</title>
    <path d="M59.9,42.33a1.4,1.4,0,0,1-.08.43,6.48,6.48,0,0,0-.2,1.61A7.77,7.77,0,0,0,60,46.83a16.07,16.07,0,0,0,1.27,3c1.09,2.1,2.66,4.37,4.25,6.81a43.45,43.45,0,0,1,4.27,7.93,21.53,21.53,0,0,1,.7,2.13,11.91,11.91,0,0,0,.71,2.27c.54,1.48,1.22,2.86,1.8,4.21,1.22,2.69,2.41,5.08,3.38,7.24a30,30,0,0,1,1.87,5.06l.12.27-2.41-.78a6,6,0,0,0,0-1.67,19.68,19.68,0,0,0-2-5.62c-1.06-2.12-2.41-4.47-3.77-7-.67-1.24-1.34-2.57-1.92-3.93s-1-2.83-1.59-4.27-1.23-2.88-1.83-4.29a43.34,43.34,0,0,0-2.14-3.9c-1.43-2.54-2.94-4.86-4.16-6.77s-2.25-3.62-2.87-4.8c-.33-.59-.55-1.07-.72-1.39l-.22-.5.19.44.62,1.45c.55,1.29,1.45,3,2.58,5s2.42,4.42,3.64,7c.55,1.29,1.24,2.65,1.74,4.07s1.08,2.84,1.54,4.28.8,2.94,1.38,4.44,1.21,2.84,1.79,4.19c1.28,2.63,2.52,5,3.44,7.09a17.51,17.51,0,0,1,1.59,4.91l0,.47L72.68,84c-.95-.33-1.91-.71-2.84-1a6.89,6.89,0,0,0-.14-1.8,18.19,18.19,0,0,0-2.3-5.38c-1.17-2-2.65-4.16-3.94-6.57a18.6,18.6,0,0,1-1.62-3.79c-.16-.63-.31-1.4-.47-2.14S61,61.8,60.83,61a40.87,40.87,0,0,0-1.46-4.33l-.88-2.06a12.51,12.51,0,0,0-1-1.94c-.66-1.25-1.36-2.48-2-3.55S54.16,47,53.56,46.09c-1.22-1.89-2.21-3.49-2.82-4.65-.32-.57-.55-1-.7-1.35l-.21-.49.21.49.6,1.41c.52,1.22,1.43,2.88,2.52,4.84.54,1,1.14,2.05,1.73,3.19s1.2,2.35,1.76,3.63l.83,2a12.68,12.68,0,0,1,.73,2,39.51,39.51,0,0,1,1.13,4.26c.15.71.29,1.4.39,2.17s.19,1.45.37,2.26a20.45,20.45,0,0,0,1.52,4.29c1.25,2.63,2.65,4.88,3.68,6.82a15.9,15.9,0,0,1,1.83,4.66l0,.32L64.8,81h0a7,7,0,0,0-.13-1.92,17.78,17.78,0,0,0-2.26-5.3c-1.15-2-2.62-4.11-4.07-6.42a37.58,37.58,0,0,1-2-3.63,18,18,0,0,1-.82-1.91l-.71-2.1a123.84,123.84,0,0,0-5.86-15.23,15.14,15.14,0,0,0-3.12-4.38,6,6,0,0,0-1.09-.9,4.34,4.34,0,0,0-.49-.22l.47.24a6,6,0,0,1,1.16.93,14.84,14.84,0,0,1,2.76,4.51,123.11,123.11,0,0,1,4.71,15.5l.56,2.14a19.1,19.1,0,0,0,.76,2.18,39.44,39.44,0,0,0,2,3.92C58,70.89,59.36,73.06,60.35,75a15.46,15.46,0,0,1,1.77,4.58V80l-1.84-.74a7.41,7.41,0,0,0-.12-1.85,17.5,17.5,0,0,0-2.38-5.58c-1.23-2.06-2.83-4.28-4.39-6.7a30.92,30.92,0,0,1-2.11-3.81l-.42-1-.45-1.06c-.3-.71-.52-1.46-.82-2.2s-.62-1.46-.93-2.18-.61-1.43-1-2.12-.68-1.39-1-2-.64-1.35-.92-2c-.72-1.22-1.52-2.41-2.31-3.6L42.22,43.5c-.41-.48-.77-1-1.16-1.42a30.92,30.92,0,0,0-4-4c-.55-.42-1-.75-1.29-1l-.48-.26.45.34c.29.21.7.56,1.21,1a30.6,30.6,0,0,1,3.72,4.2c.35.46.69,1,1.06,1.47l1.1,1.61c.69,1.14,1.38,2.34,2.06,3.71.28.66.64,1.25,1,2l.88,2.07c.3.7.6,1.4.83,2.13s.51,1.45.74,2.17.45,1.48.67,2.22l.33,1.13a7.14,7.14,0,0,1,.42,1.15,32.72,32.72,0,0,0,2.07,4.14c1.49,2.56,3,4.84,4.05,6.84a15.14,15.14,0,0,1,1.78,4.71l0,.32-3.69-1.48a6.94,6.94,0,0,0-.16-1.89,17.56,17.56,0,0,0-2.61-5.5c-1.3-2-3-4.2-4.46-6.62a19.93,19.93,0,0,1-1.85-3.84,8.87,8.87,0,0,1-.3-1l-.25-1.12c-.18-.78-.4-1.57-.63-2.33a37.33,37.33,0,0,0-3.92-8.47,43,43,0,0,0-4.9-6.42,35,35,0,0,0-4.17-3.87c-.53-.43-1-.73-1.3-1l-.47-.31.45.33c.29.23.71.55,1.22,1a34.7,34.7,0,0,1,3.88,4.09,42.27,42.27,0,0,1,4.35,6.62,36.05,36.05,0,0,1,3.26,8.39c.18.75.33,1.48.45,2.22l.09.57.1.25.06.39a10.65,10.65,0,0,0,.29,1.22,21.77,21.77,0,0,0,1.85,4.34c1.47,2.63,3,4.82,4.2,6.86a15.24,15.24,0,0,1,2,4.77l.09.22-2.14-.9a5.9,5.9,0,0,0-.14-1.7,9,9,0,0,0-1-2.26,20.23,20.23,0,0,0-1.61-2.37C45.15,66.63,43.56,64.92,42,63A23.14,23.14,0,0,1,40,59.86a11.61,11.61,0,0,1-.73-1.71l-.65-1.88c-.85-2.54-1.64-5.09-2.41-7.5a57.22,57.22,0,0,0-2.35-6.51,15.62,15.62,0,0,0-1.37-2.47,10.18,10.18,0,0,0-1.39-1.62A9.12,9.12,0,0,0,30,37.31L29.61,37l.39.29a9,9,0,0,1,1,.92,10,10,0,0,1,1.24,1.69,15.21,15.21,0,0,1,1.14,2.46A56.56,56.56,0,0,1,35.19,49c.57,2.45,1.16,5.08,1.76,7.71a14.58,14.58,0,0,1,.6,1.93,13.44,13.44,0,0,0,.84,2,25,25,0,0,0,2.06,3.47c1.48,2.12,3,3.92,4.09,5.53a17.81,17.81,0,0,1,1.33,2.2,6.38,6.38,0,0,1,.59,1.66h0l-.54-.23q-3.33-1.44-6.53-2.87l.07-.23-.06-.4a4.37,4.37,0,0,0,0-1,6.93,6.93,0,0,0-.76-2.24,18.47,18.47,0,0,0-1.44-2.29c-1.11-1.56-2.5-3.2-3.78-5.05a20.76,20.76,0,0,1-1.74-2.93l-.34-.79L31,54.59l-.72-1.69a103,103,0,0,0-5.6-12.4,21.08,21.08,0,0,0-1.43-2.11,13.3,13.3,0,0,0-1.31-1.46l-.53-.49L21,36.11l-.34-.27.33.3.39.35.48.53A13.09,13.09,0,0,1,23,38.56a20.69,20.69,0,0,1,1.24,2.18,102.38,102.38,0,0,1,4.61,12.63l.55,1.77.3.93.38.89a22.63,22.63,0,0,0,1.72,3.3c1.24,2,2.55,3.76,3.5,5.27a16.07,16.07,0,0,1,1.14,2.05A4.36,4.36,0,0,1,36.86,69v.25l-3.11-1.44-.56-.27a3.94,3.94,0,0,0,.14-1.36,6,6,0,0,0-.57-2,15.15,15.15,0,0,0-1.19-2.06c-.93-1.39-2.1-2.83-3.18-4.44a19,19,0,0,1-1.47-2.52l-1.22-2.86A84.85,84.85,0,0,0,21,41.42a17.19,17.19,0,0,0-1.24-1.83,10.72,10.72,0,0,0-1.15-1.25l-.47-.41-.37-.27-.31-.22.29.26.34.3.42.45a10.5,10.5,0,0,1,1,1.33,16.87,16.87,0,0,1,1,1.88,84.19,84.19,0,0,1,3.64,11.07l.44,1.54a14.67,14.67,0,0,0,.52,1.57,20.91,20.91,0,0,0,1.44,2.88c1,1.77,2.12,3.3,2.89,4.62a12.73,12.73,0,0,1,.88,1.78,3.43,3.43,0,0,1,.27,1.23h0l-4-2a2.38,2.38,0,0,0,.11-.49,3.82,3.82,0,0,0,0-.85,5.31,5.31,0,0,0-.55-1.87,12.41,12.41,0,0,0-1.13-1.83c-.86-1.16-2-2.47-3.15-3.79a18.53,18.53,0,0,1-2.87-4.4L18,48.54,17,46c-.63-1.66-1.17-3.24-1.82-4.54a8.43,8.43,0,0,0-1-1.7,8.15,8.15,0,0,0-1.12-1,8.75,8.75,0,0,0-.79-.56L12,37.95l.26.22c.17.14.41.36.7.65a7,7,0,0,1,1.78,2.82c.47,1.33.82,2.92,1.25,4.65l.66,2.67c.24.92.46,1.8.74,2.74a20.24,20.24,0,0,0,2.85,5.08c1.05,1.46,2.07,2.77,2.78,3.89a10,10,0,0,1,.82,1.52,2.81,2.81,0,0,1,.23.91L23,62.51,19.9,60.9a1.25,1.25,0,0,0,.1-.2,3.6,3.6,0,0,0,.19-.6,3.81,3.81,0,0,0-.1-1.66,5.92,5.92,0,0,0-.72-1.68A37.09,37.09,0,0,0,17,53.85a16.16,16.16,0,0,1-2.18-3.24l-.39-.9L14,48.8a15.12,15.12,0,0,1-.57-1.94,13.82,13.82,0,0,0-1.38-3.46,7.31,7.31,0,0,0-1.72-2A6.68,6.68,0,0,0,9.75,41l-.21-.14a7,7,0,0,1,.69.68,6.94,6.94,0,0,1,1.31,2.11,13,13,0,0,1,.74,3.43c.08.65.15,1.34.25,2.06.09.47.12.76.22,1.16a7.21,7.21,0,0,0,.36,1.09c1.09,2.85,3.24,5.09,4.11,6.7a3.37,3.37,0,0,1,.41,1,1.15,1.15,0,0,1,0,.56h0L13.4,57.3h0l.09-.44a2.81,2.81,0,0,0,.09-1,3.39,3.39,0,0,0-.34-1.2,7.44,7.44,0,0,0-1.75-2.16A18.37,18.37,0,0,0,9,50.68a33.55,33.55,0,0,0-5-2.47c-1.41-.58-2.37-.87-2.37-.87s.94.38,2.29,1.07a33.13,33.13,0,0,1,4.61,2.89,17.57,17.57,0,0,1,2.19,1.91,6.44,6.44,0,0,1,1.34,2,2.19,2.19,0,0,1,.16.8,1.5,1.5,0,0,1-.1.55l-.07.15h0c-1.85-1-3.48-2-4.88-2.78L2.91,51.35l-1.52-.88,1.46,1c.95.65,2.36,1.62,4.24,2.77s4,2.59,6.61,4.16c1.43.92,2.93,1.81,4.5,2.66a1.1,1.1,0,0,1-.34.14,2.57,2.57,0,0,1-1,0,15,15,0,0,1-3.08-1c-1.14-.48-2.37-1-3.57-1.53a52.82,52.82,0,0,0-6.94-2.58A13.08,13.08,0,0,0,.9,55.56L0,55.38l.89.26c.46.15,1.3.39,2.25.75a52.16,52.16,0,0,1,6.59,3.19c1.16.65,2.32,1.32,3.45,1.92a16.33,16.33,0,0,0,3.32,1.44,4.39,4.39,0,0,0,1.72.14,2.81,2.81,0,0,0,1.42-.61,2.64,2.64,0,0,0,.38-.36l1.91,1.07-.14.18c-.09,0-.18.18-.27.3a4,4,0,0,1-.4.29,3.44,3.44,0,0,1-1.14.49,9.59,9.59,0,0,1-3.55,0,39.57,39.57,0,0,1-4.26-1c-2.91-.81-5.82-1.69-8-2.23-1.1-.28-2-.48-2.69-.61l-1-.19,1,.27c.63.19,1.54.46,2.61.83,2.08.76,4.89,1.86,7.75,2.93a40.76,40.76,0,0,0,4.31,1.37,11.09,11.09,0,0,0,4.15.37A5.26,5.26,0,0,0,22,65.64a5.71,5.71,0,0,0,.67-.43c.19-.17.36-.31.51-.46l.39-.46h0L27,66.13l-.08,0-.19.34c-.14.06-.23.24-.4.35a5.71,5.71,0,0,1-1.22.73,13.24,13.24,0,0,1-3.69,1,45,45,0,0,1-4.64.33c-3.2.08-6.45.06-8.87.16s-4.06.2-4.06.2,1.72,0,4.08.14,5.61.51,8.86.81a46.56,46.56,0,0,0,4.83.17A15.29,15.29,0,0,0,26,69.7a8.14,8.14,0,0,0,1.74-.82,8.32,8.32,0,0,0,.69-.49c.2-.18.37-.34.53-.5l.43-.5h0l2.27,1.17a11,11,0,0,1-2.29,1.25,46.1,46.1,0,0,1-8.68,2.57c-1.63.33-3.28.59-4.85.78a36.57,36.57,0,0,1-4.29.3c-1.27,0-2.31,0-3.05,0l-1.14-.09,1.15.18c.73.1,1.78.22,3,.3s2.74.13,4.34.1,3.29-.12,5-.29a47.87,47.87,0,0,0,9.29-1.76,12.85,12.85,0,0,0,3.1-1.32,4.47,4.47,0,0,0,.53-.4,2,2,0,0,0,.27-.27l.11-.14q1.92.92,3.86,1.88a4.36,4.36,0,0,1-1.12.48,19.68,19.68,0,0,1-1.91.54c-1.47.35-3.28.73-5.18,1.32a24.12,24.12,0,0,0-2.91,1.1,7.69,7.69,0,0,0-1.43.73,2,2,0,0,0-.69.42l-.64.41c-.43.29-.85.47-1.3.78a6.65,6.65,0,0,1-1.32.66,21.08,21.08,0,0,1-2.71,1,23.05,23.05,0,0,1-2.63.62,22.55,22.55,0,0,1-2.44.29,28.11,28.11,0,0,1-3.71.05c-.45,0-.8-.05-1-.08L8.62,80,9,80c.23,0,.58.12,1,.19a28.49,28.49,0,0,0,3.73.36,22,22,0,0,0,2.53,0,24,24,0,0,0,2.82-.36,22.29,22.29,0,0,0,3-.81,12.12,12.12,0,0,1,1.49-.56,12.19,12.19,0,0,0,1.47-.63l1.36-.69,1.29-.55a22.14,22.14,0,0,1,2.7-.84c1.81-.45,3.57-.7,5.12-1a11.34,11.34,0,0,0,4-1.28,4.22,4.22,0,0,0,.68-.55l.26-.28.05-.2q2.07.94,4.11,1.9a1.64,1.64,0,0,1-.19.19,4.22,4.22,0,0,1-1.25.66,17.48,17.48,0,0,1-2.11.58c-1.65.37-3.68.72-5.81,1.38a21.76,21.76,0,0,0-3.23,1.27,17.53,17.53,0,0,0-1.57.87,7.09,7.09,0,0,0-.77.5l-.7.48c-.45.34-.91.54-1.37.86a8.09,8.09,0,0,1-1.47.75,18.41,18.41,0,0,1-3,1.06,21.08,21.08,0,0,1-3,.58,24.65,24.65,0,0,1-2.75.15c-.86,0-1.64,0-2.34-.1s-1.3-.13-1.8-.21-.89-.14-1.15-.2l-.41-.07.4.11c.26.07.64.18,1.13.3s1.12.29,1.77.43a18.11,18.11,0,0,0,2.35.32,25.3,25.3,0,0,0,2.83.11,22,22,0,0,0,3.17-.31,19.68,19.68,0,0,0,3.31-.86l1.63-.7A8.29,8.29,0,0,0,29.93,82l1.47-.84a15.66,15.66,0,0,1,1.46-.7,19.76,19.76,0,0,1,3.06-1c2-.51,4-.73,5.68-1A19.83,19.83,0,0,0,44.07,78a6.83,6.83,0,0,0,2-1,4.22,4.22,0,0,0,1.12-1.18l4.17,1.81-.09,0a4.81,4.81,0,0,1-1.39.73,19.44,19.44,0,0,1-2.35.59c-1.81.41-4.06.77-6.42,1.5a23.89,23.89,0,0,0-3.56,1.4,19.2,19.2,0,0,0-1.73,1,6,6,0,0,0-.84.54l-.77.53c-.53.38-1,.64-1.56,1a11.32,11.32,0,0,1-1.62.82,20.34,20.34,0,0,1-3.35,1.2,23.3,23.3,0,0,1-3.29.63l-1,.08-.87-.15-1.67-.33,1.71.43.31.08c-.47,0-.92,0-1.36,0a25.74,25.74,0,0,1-2.57-.12c-.76-.07-1.43-.16-2-.24s-1-.17-1.27-.22L15.23,87l.45.12c.29.07.71.2,1.25.32s1.2.28,2,.41,1.64.26,2.62.41a27.86,27.86,0,0,0,3.1.11l.71,0,1.68.37a35.67,35.67,0,0,0,6.46.81,19.68,19.68,0,0,0,7.44-1.13,16,16,0,0,0,1.82-.78l.82-.44a3,3,0,0,0,.77-.42,22.49,22.49,0,0,1,3.17-1.35c2.15-.7,4.25-1.11,6.1-1.53a13,13,0,0,0,4.49-1.72,5.17,5.17,0,0,0,.74-.65l.28-.32.16-.24,2.22.9-.17.15a6.28,6.28,0,0,1-1.63.91,25,25,0,0,1-2.68.88A72.71,72.71,0,0,0,49.94,86a26.42,26.42,0,0,0-3.81,1.82,5.77,5.77,0,0,0-.93.58l-.88.58c-.57.35-1.22.72-1.77,1a27.7,27.7,0,0,1-7.73,2.55,35.91,35.91,0,0,1-7.18.54,39.47,39.47,0,0,1-5.11-.45c-1.23-.19-1.92-.34-1.92-.34s.68.2,1.9.47a39.76,39.76,0,0,0,5.14.86A36.64,36.64,0,0,0,35,93.5a29,29,0,0,0,8.26-2.12,17.42,17.42,0,0,0,2-1l.94-.52c.31-.13.59-.34.89-.49a24.5,24.5,0,0,1,3.63-1.55,71.12,71.12,0,0,1,6.9-1.74,14.48,14.48,0,0,0,5.26-2,5.62,5.62,0,0,0,.82-.73L64,83l.07-.12q2.52,1,5.09,1.94a3.06,3.06,0,0,1-.28.27,6.28,6.28,0,0,1-1.63.91,25,25,0,0,1-2.68.88,72.71,72.71,0,0,0-7.06,2.17,26.42,26.42,0,0,0-3.81,1.82,5.77,5.77,0,0,0-.93.58L52,92c-.57.35-1.22.72-1.77,1a27.7,27.7,0,0,1-7.73,2.55,35.91,35.91,0,0,1-7.18.54,39.47,39.47,0,0,1-5.18-.46c-1.23-.19-1.92-.34-1.92-.34s.68.2,1.9.47a39.76,39.76,0,0,0,5.14.86,36.64,36.64,0,0,0,7.35-.08,29,29,0,0,0,8.26-2.12,17.42,17.42,0,0,0,2-1l.94-.52c.31-.13.59-.34.89-.49a24.5,24.5,0,0,1,3.63-1.55,71.12,71.12,0,0,1,6.9-1.74,14.48,14.48,0,0,0,5.26-2,5.62,5.62,0,0,0,.82-.73l.29-.35.21-.32.27.1,2.6.88a8,8,0,0,1-1.53,1,16.12,16.12,0,0,1-2.59,1.1C68.55,89.49,66,90,63.39,91a20,20,0,0,0-3.91,2c-.3.22-.62.43-.92.67l-.84.68A18.62,18.62,0,0,1,56,95.6a17.37,17.37,0,0,1-3.73,1.83,18.4,18.4,0,0,1-4,.91A32.85,32.85,0,0,1,41,98.21c-2.15-.24-4-.45-5.24-.5-.63,0-1.14,0-1.52,0l-.52,0h.52q.51,0,1.47.11c1.26.13,3,.47,5.18.85a33.56,33.56,0,0,0,7.47.63,19.55,19.55,0,0,0,4.29-.69A18.81,18.81,0,0,0,56.8,96.9a20.56,20.56,0,0,0,1.92-1.2l.88-.62c.26-.2.56-.38.85-.56a18.08,18.08,0,0,1,3.61-1.63c2.47-.83,5-1.22,7.13-1.81a18.57,18.57,0,0,0,3-1,10.53,10.53,0,0,0,2.34-1.36c.3-.22.53-.47.74-.65l.32-.43,2.06.65c-.09,0-.15.14-.24.22a13.32,13.32,0,0,1-4.27,2c-2,.68-4.49,1.37-7.05,2.41a32.14,32.14,0,0,0-3.87,2c-.64.36-1.21.75-1.86,1.16s-1.21.75-1.8,1.06a27.55,27.55,0,0,1-7.8,2.67,35.77,35.77,0,0,1-7.28.59,39.48,39.48,0,0,1-5.19-.45c-1.24-.19-2-.34-2-.34s.7.21,1.93.48a39.78,39.78,0,0,0,5.2.84,36.54,36.54,0,0,0,7.44-.12,28.84,28.84,0,0,0,8.35-2.22,11.87,11.87,0,0,0,2-1,18.3,18.3,0,0,1,1.84-1,30.22,30.22,0,0,1,3.71-1.58c2.48-.88,4.92-1.44,7-2A15.46,15.46,0,0,0,81,90.62a6,6,0,0,0,.8-.74l.29-.35.25-.38h0c.85.25,1.72.46,2.57.69a4,4,0,0,1-.28.3A8,8,0,0,1,83,91.3a27.08,27.08,0,0,1-2.52,1.25c-2,.84-4.36,1.86-6.87,3.07a36.08,36.08,0,0,0-3.75,2.17,5.07,5.07,0,0,0-.92.64l-.88.63c-.57.39-1.19.8-1.76,1.13a26.61,26.61,0,0,1-7.79,3,34.16,34.16,0,0,1-7.32.74,36.76,36.76,0,0,1-5.24-.39c-1.26-.2-2-.35-2-.35s.7.21,1.95.48a37.05,37.05,0,0,0,5.28.8,34.89,34.89,0,0,0,7.53-.26,27.89,27.89,0,0,0,8.35-2.56,15.46,15.46,0,0,0,2-1.11L70,99.9a6.51,6.51,0,0,0,.88-.56,34.14,34.14,0,0,1,3.64-1.89c2.46-1,4.83-1.89,6.91-2.71a17,17,0,0,0,5-2.66,6.69,6.69,0,0,0,.74-.76l.27-.36.22-.37.08,0,3.27.71a2.73,2.73,0,0,1-.39.55,16.52,16.52,0,0,1-3.84,2.78c-1.81,1.06-4,2.21-6.34,3.62a31.2,31.2,0,0,0-3.45,2.3,28.11,28.11,0,0,1-3.4,2.34c-1.23.71-2.48,1.36-3.75,2l-1.89.81-1.85.79a55.08,55.08,0,0,1-6.92,2.11c-.51.13-1,.23-1.49.31s-.93.18-1.41.27l-1.19.17-1,.1c-.62.08-1.1.07-1.48.11l-.51,0h.51c.33,0,.82,0,1.45,0l1.17-.16,1.21-.1c.43,0,.89-.09,1.37-.16s1-.14,1.52-.22a55.77,55.77,0,0,0,7.13-1.67c.64-.19,1.35-.42,1.95-.63l2-.72,4-1.69A30.09,30.09,0,0,0,78,102a29.52,29.52,0,0,1,3.41-2.11c2.3-1.24,4.56-2.27,6.49-3.27a18.62,18.62,0,0,0,4.62-3,4.89,4.89,0,0,0,1.12-1.64l.06-.18q1.43.26,2.85.48l-.22.25a31.22,31.22,0,0,1-3.66,3.18,42.91,42.91,0,0,1-5.83,3.8,14.46,14.46,0,0,1-1.72.73l-.93.4-1,.43a39.69,39.69,0,0,0-3.73,2c-2.44,1.44-4.75,2.93-7,4.23a39.36,39.36,0,0,1-6.33,3.07,13.11,13.11,0,0,1-4.9.88,5.41,5.41,0,0,1-.81-.07,3.92,3.92,0,0,1-.59-.1l-.49-.11.48.15a4,4,0,0,0,.58.15,5.5,5.5,0,0,0,.82.12,13.38,13.38,0,0,0,5-.62,40,40,0,0,0,6.63-2.75c2.36-1.16,4.8-2.54,7.26-3.79a38.25,38.25,0,0,1,3.79-1.69l.88-.38,1-.28a16.21,16.21,0,0,0,2-.75,44.89,44.89,0,0,0,6.35-3.63,33.51,33.51,0,0,0,4.16-3.23,6.82,6.82,0,0,0,1.14-1.34l.18-.25.7.1-.18.26a20.86,20.86,0,0,1-3.56,3.41c-1.66,1.34-3.71,2.81-5.93,4.37-1.12.78-2.26,1.61-3.41,2.46s-2.33,1.7-3.51,2.52a58.39,58.39,0,0,1-7.2,4.39,26.71,26.71,0,0,1-6.9,2.46,16.35,16.35,0,0,1-2.94.28,12.55,12.55,0,0,1-2.26-.2,10.71,10.71,0,0,1-1.42-.36l-.49-.16.48.19a10.78,10.78,0,0,0,1.41.45,12.73,12.73,0,0,0,2.27.34,16.68,16.68,0,0,0,3-.11,27.37,27.37,0,0,0,7.18-2.09,59.5,59.5,0,0,0,7.59-4c1.21-.75,2.47-1.54,3.67-2.32s2.4-1.53,3.52-2.24c2.3-1.44,4.47-2.81,6.27-4.1a23.08,23.08,0,0,0,4.21-3.64,6.23,6.23,0,0,0,1-1.57l.82.11-.13.22c-.28.49-.65,1.06-1.1,1.72s-.93,1.39-1.56,2.19-1.26,1.64-2,2.53-1.5,1.79-2.36,2.67A31.91,31.91,0,0,1,94.07,105a38.72,38.72,0,0,1-3.17,2.28c-1.08.72-2.24,1.45-3.37,2.1s-2.26,1.29-3.37,1.87-2.21,1.09-3.25,1.59l-1.54.66-1.43.61-1.33.47-1.24.39c-.78.21-1.47.41-2,.51a12.51,12.51,0,0,1-1.34.22l-.48.07.48,0a12.65,12.65,0,0,0,1.37-.13c.58-.07,1.29-.2,2.09-.36l1.28-.3,1.37-.37,1.51-.48,1.6-.56c1.07-.46,2.24-.85,3.39-1.36s2.38-1,3.55-1.64,2.4-1.22,3.58-1.88a32.57,32.57,0,0,0,3.48-2.19,33.73,33.73,0,0,0,3.08-2.6c.94-.89,1.79-1.79,2.59-2.63s1.52-1.7,2.19-2.46a19.39,19.39,0,0,0,1.72-2.26c.48-.74,1-1.29,1.27-1.79s.65-1,.79-1.3l.06-.12h.21a20.59,20.59,0,0,1-2,3c-1,1.31-2.27,2.85-3.56,4.58-.32.43-.65.87-1,1.34s-.62.92-1,1.35a16.07,16.07,0,0,1-2.12,2.43,18.06,18.06,0,0,1-5.5,3.31c-1.93.82-3.86,1.37-5.4,2.14A9,9,0,0,0,83.38,114a7,7,0,0,0-.64,1l-.2.36.22-.34a7,7,0,0,1,.7-.9,8.77,8.77,0,0,1,3.36-2.2c1.54-.66,3.48-1,5.52-1.7a19.21,19.21,0,0,0,6.09-3.07,17.56,17.56,0,0,0,2.57-2.44c.39-.44.72-.86,1.07-1.3s.67-.8,1-1.2c1.38-1.57,2.76-3,3.89-4.31a21.56,21.56,0,0,0,2.54-3.53,8.53,8.53,0,0,0,.42-.87l2.25,0c-.3.66-.67,1.48-1.15,2.4a37,37,0,0,1-2.46,4.11,10.66,10.66,0,0,1-.79,1l-.86,1.1-.89,1.05-1,1c-.66.68-1.33,1.33-2,1.95s-1.4,1.21-2.1,1.74a37.13,37.13,0,0,1-4,2.7c-1.23.71-2.31,1.25-3.07,1.58s-1.22.52-1.22.52a12.34,12.34,0,0,1,1.24-.42A20.26,20.26,0,0,0,97.09,111a37.78,37.78,0,0,0,4.34-2.37c.77-.5,1.54-1,2.36-1.62s1.53-1.19,2.28-1.83l1.11-1,1.08-1,1-1c.34-.36.63-.71.94-1.06a38.53,38.53,0,0,0,2.75-3.68l0,1.31c.07.66.13,1.2.25,1.87s.23,1.28.38,1.92a33.93,33.93,0,0,0,2.28,6.67,21.61,21.61,0,0,0,1,2.06l.43.72-.34-.8a12.13,12.13,0,0,1-.74-2.17,33,33,0,0,1-1.35-6.74c-.05-.62-.09-1.25-.1-1.84s0-1.27,0-1.79c0-.9.12-1.73.21-2.49a5.45,5.45,0,0,0,.67,1.24l.64,1,.7,1a29,29,0,0,0,3,3.39c.86.86,1.47,1.39,1.47,1.39s-.49-.65-1.13-1.66a28.11,28.11,0,0,1-2.06-3.83l-.46-1.07-.37-1a19.34,19.34,0,0,1-.52-1.89c-.1-.48-.16-.88-.21-1.18H117c1,0,2,0,3-.08,2-.12,3.94-.26,5.79-.47,3.71-.37,7.08-.93,10-1.52s5.53-1.2,7.62-1.73,3.72-1.05,4.83-1.4l1.69-.55-1.72.44c-1.12.28-2.77.66-4.89,1.12a126.92,126.92,0,0,1-17.68,2.49c-1.83.14-3.76.21-5.75.27h-1.36l.08-.64a6.85,6.85,0,0,0-.35-2,8.43,8.43,0,0,0-1.21-2.26,23.66,23.66,0,0,0-3.94-3.94A31.88,31.88,0,0,1,110.69,81l-.24-.57c-.32-.92-.53-1.82-.8-2.81s-.5-1.93-.73-2.9l-.64-2.78c-.41-1.84-.8-3.59-1.2-5.07-.21-.74-.4-1.36-.64-2a14.49,14.49,0,0,0-.63-1.49,8.25,8.25,0,0,0-.53-.89l-.14-.32.14.34a8.17,8.17,0,0,1,.4.93,14.22,14.22,0,0,1,.44,1.51c.13.6.25,1.27.37,2,.19,1.45.36,3.24.52,5.13l.29,2.84a13.31,13.31,0,0,0-.76-1.13,9.15,9.15,0,0,0-2.12-2,9.05,9.05,0,0,0-2.36-1.12c-.39-.12-.77-.22-1.12-.3-.46-1.09-.92-2.15-1.43-3.15s-1-2.1-1.57-3-1.07-1.83-1.59-2.62S95.29,60,94.81,59.42a19.55,19.55,0,0,0-1.38-1.52c-.39-.4-.72-.67-.94-.87l-.34-.3.31.33c.2.22.51.52.84.94a19.28,19.28,0,0,1,1.19,1.57c.42.63.87,1.36,1.31,2.18s.89,1.72,1.3,2.7.86,2,1.24,3.12l.79,2.29-.74-.16A13,13,0,0,1,97,69.34a13.07,13.07,0,0,0,1.29.56l.92.43c.44,1.34.92,2.83,1.37,4.28.39,1.19.69,2.37,1.16,3.6s1,2.33,1.46,3.43c1,2.15,2.08,4.08,2.8,5.73a15.38,15.38,0,0,1,1.28,3.9l.08.4h0c-.51,0-1-.08-1.57-.11a10.5,10.5,0,0,0-.2-1.54,19.92,19.92,0,0,0-1.83-4.87c-.93-1.85-2.15-3.85-3.39-6-.62-1.06-1.24-2.16-1.82-3.3s-1.18-2.34-1.76-3.51c-1.15-2.38-2.25-4.8-3.35-7a29.06,29.06,0,0,0-1.7-3.19A25.21,25.21,0,0,0,90,59.36a22.94,22.94,0,0,0-1.73-2.12l-.78-.83-.71-.66c-.42-.4-.8-.67-1-.87l-.37-.3.34.33c.22.23.57.52.94,1l.65.76.7.88a22.49,22.49,0,0,1,1.5,2.23A30.37,30.37,0,0,1,91,62.55c.48,1,.91,2.13,1.4,3.27.89,2.31,1.78,4.8,2.72,7.29.55,1.29,1,2.49,1.46,3.72a35.45,35.45,0,0,0,1.64,3.53c1.11,2.25,2.17,4.29,2.92,6a16.87,16.87,0,0,1,1.28,4.19l.05.59-.89-.08a11.24,11.24,0,0,0-.27-1.6,28.11,28.11,0,0,0-2-5.37c-1-2.07-2.25-4.41-3.64-6.84l-2.13-3.67-1.09-1.9c-.28-.65-.67-1.24-1-1.93-1.33-2.72-2.37-5.45-3.63-8A42.91,42.91,0,0,0,84,55.09a18.38,18.38,0,0,0-2-2.37,12.65,12.65,0,0,0-1.84-1.52,9.84,9.84,0,0,0-1.35-.83l-.44-.2a2.73,2.73,0,0,0,.46.28,10.42,10.42,0,0,1,1.24.86,12.17,12.17,0,0,1,1.68,1.61,17.77,17.77,0,0,1,1.73,2.45,42,42,0,0,1,3.12,6.88c1,2.64,1.88,5.43,3,8.26l.9,2.11.22.52.23.53.44,1,1.95,3.85c1.26,2.52,2.34,4.81,3.16,6.83A25.06,25.06,0,0,1,98,90.17l.07.41-1.43-.24h0a10.44,10.44,0,0,0-.31-1.84,28.66,28.66,0,0,0-2.09-5.39c-1-2.09-2.32-4.42-3.75-6.88l-2.2-3.77c-.72-1.37-1.46-2.59-2-3.88-1.31-2.67-2.47-5.47-3.68-8a44.37,44.37,0,0,0-3.79-6.83,18.27,18.27,0,0,0-2.08-2.44,12.78,12.78,0,0,0-1.85-1.55,10,10,0,0,0-1.34-.77l-.5-.2a2.81,2.81,0,0,0,.47.29,10.63,10.63,0,0,1,1.26.87,12.26,12.26,0,0,1,1.69,1.63A17.61,17.61,0,0,1,78.22,54a43.42,43.42,0,0,1,3.14,7c1,2.64,1.89,5.5,3,8.37a40.3,40.3,0,0,0,1.92,4.16l2,3.87c1.28,2.51,2.42,4.85,3.27,6.89a25.65,25.65,0,0,1,1.61,4.88l.08.48L92,89.38l-.07-.17-.12-.76c-.11-.26-.12-.61-.23-1a21.67,21.67,0,0,0-2.42-5.32c-1.2-2-2.78-4.19-4.33-6.56a31.06,31.06,0,0,1-2-3.72c-.55-1.29-1-2.76-1.56-4.19-1-2.87-2-5.79-3.17-8.43a30.92,30.92,0,0,0-3.9-6.89,24,24,0,0,0-3.91-3.94c-.53-.42-1-.72-1.26-1l-.45-.31.42.34c.28.22.68.56,1.19,1a23.7,23.7,0,0,1,3.61,4.13,30.25,30.25,0,0,1,3.42,6.91c1,2.65,1.76,5.59,2.59,8.54.43,1.47.78,2.94,1.37,4.43a33,33,0,0,0,2,4.09c1.43,2.54,2.89,4.77,4,6.73a19.16,19.16,0,0,1,2,4.79l.14.64c-.78-.19-1.58-.37-2.35-.53l-.21-.06a9,9,0,0,0-.36-1.74,28.86,28.86,0,0,0-2.4-5.3c-1.12-2.06-2.51-4.35-3.9-6.85C79.23,73,78.58,71.8,78,70.41a17,17,0,0,1-.78-2.07,18.3,18.3,0,0,0-.81-2.18L75.46,64,75,62.92l-.53-1c-.7-1.36-1.48-2.65-2.24-3.89-1.53-2.4-3.13-4.64-4.46-6.52s-2.46-3.43-3.17-4.56c-.36-.56-.63-1-.81-1.33l-.22-.5.22.5A8.88,8.88,0,0,0,64.5,47c.67,1.24,1.65,2.83,2.88,4.78s2.63,4.24,4,6.75c.66,1.25,1.34,2.57,1.94,3.94l.44,1,.44,1c.3.7.51,1.4.75,2.11.47,1.42.8,2.94,1.38,4.42s1.21,2.83,1.85,4.13c1.3,2.61,2.61,5,3.6,7a26.57,26.57,0,0,1,2,4.9l.11.26c-.9-.26-1.76-.55-2.72-.79a6.42,6.42,0,0,0-.27-1.81,32,32,0,0,0-2.32-5.43c-1.06-2.12-2.37-4.51-3.68-7.09-.64-1.25-1.31-2.64-1.88-4a15.64,15.64,0,0,1-.78-2.11,23.26,23.26,0,0,0-.95-2.22A44.68,44.68,0,0,0,66.38,56c-1.74-2.32-3.44-4.49-4.64-6.47a15.73,15.73,0,0,1-1.4-2.82,7.62,7.62,0,0,1-.48-2.38A5.73,5.73,0,0,1,60,42.7c0-.17,0-.32.08-.42a.2.2,0,0,0-.07-.16ZM52.81,81.57c-1.77.51-3.94,1.05-6.19,1.92a24.4,24.4,0,0,0-3.38,1.61,5.6,5.6,0,0,0-.82.5l-.78.5a14.37,14.37,0,0,1-1.54.83,18.27,18.27,0,0,1-6.84,1.59A35,35,0,0,1,27,88.15l-.19,0c.41-.05.81-.1,1.22-.18a21.56,21.56,0,0,0,3.64-1l1.8-.77a8.83,8.83,0,0,0,1.75-.9l1.62-.94a17.33,17.33,0,0,1,1.61-.78,21.84,21.84,0,0,1,3.33-1.12c2.22-.57,4.39-.82,6.29-1.16a21.77,21.77,0,0,0,2.69-.6,7.41,7.41,0,0,0,2.13-.92,4.65,4.65,0,0,0,1.07-1.07l2.7,1.13-.19.17a10.91,10.91,0,0,1-3.65,1.56Zm62.55,9.86,0,.24-.23-.53-1.48-3.48-.07-.16a10.11,10.11,0,0,1,1,1.37A4.34,4.34,0,0,1,115.36,91.43Zm-4.75-.78a18.48,18.48,0,0,0-1.83-4.6c-.92-1.72-2.08-3.59-3.23-5.59-.56-1-1.12-2-1.61-3.12s-1-2.25-1.45-3.4l-1.2-2.82.49.21a8.08,8.08,0,0,1,1.93,1.3,7.8,7.8,0,0,1,1.55,2,12.83,12.83,0,0,1,1.1,2.59l.19.68.19.74a9.45,9.45,0,0,0,.68,1.6,12.65,12.65,0,0,0,1.28,2l.5,1.67c.59,1.84,1.23,3.53,1.77,4.93s.88,2.39,1.1,3.15l-1.17-.05a9.26,9.26,0,0,0-.31-1.27Z"/>
  </symbol>
  <symbol id="sass" viewBox="0 0 512 384"><path d="M440.6 220.6c-17.9.1-33.4 4.4-46.4 10.8-4.8-9.5-9.6-17.8-10.4-24-.9-7.2-2-11.6-.9-20.2s6.1-20.8 6.1-21.8c-.1-.9-1.1-5.3-11.4-5.4-10.3-.1-19.2 2-20.2 4.7s-3 8.9-4.3 15.3c-1.8 9.4-20.6 42.7-31.3 60.2-3.5-6.8-6.5-12.8-7.1-17.6-.9-7.2-2-11.6-.9-20.2s6.1-20.8 6.1-21.8c-.1-.9-1.1-5.3-11.4-5.4-10.3-.1-19.2 2-20.2 4.7s-2.1 9.1-4.3 15.3c-2.1 6.2-27.1 61.8-33.6 76.3-3.3 7.4-6.2 13.3-8.3 17.3s-.1.3-.3.7c-1.8 3.4-2.8 5.3-2.8 5.3v.1c-1.4 2.5-2.9 4.9-3.6 4.9-.5 0-1.5-6.7.2-15.9 3.7-19.3 12.7-49.4 12.6-50.5 0-.5 1.7-5.8-5.8-8.5-7.3-2.7-9.9 1.8-10.5 1.8-.6 0-1.1 1.6-1.1 1.6s8.1-33.9-15.5-33.9c-14.8 0-35.2 16.1-45.3 30.8-6.4 3.5-20 10.9-34.4 18.8-5.5 3-11.2 6.2-16.6 9.1l-1.1-1.2c-28.6-30.5-81.5-52.1-79.3-93.1.8-14.9 6-54.2 101.6-101.8 78.3-39 141-28.3 151.9-4.5 15.5 34-33.5 97.2-114.9 106.3-31 3.5-47.3-8.5-51.4-13-4.3-4.7-4.9-4.9-6.5-4-2.6 1.4-1 5.6 0 8.1 2.4 6.3 12.4 17.5 29.4 23.1 14.9 4.9 51.3 7.6 95.3-9.4 49.3-19.1 87.8-72.1 76.5-116.4-11.5-45.1-86.3-59.9-157-34.8-42.1 15-87.7 38.4-120.5 69.1-39 36.4-45.2 68.2-42.6 81.4 9.1 47.1 74 77.8 100 100.5-1.3.7-2.5 1.4-3.6 2-13 6.4-62.5 32.3-74.9 59.7-14 31 2.2 53.3 13 56.3 33.4 9.3 67.6-7.4 86.1-34.9 18.4-27.5 16.2-63.2 7.7-79.5l-.3-.6 10.2-6c6.6-3.9 13.1-7.5 18.8-10.6-3.2 8.7-5.5 19-6.7 34-1.4 17.6 5.8 40.4 15.3 49.4 4.2 3.9 9.2 4 12.3 4 11 0 16-9.1 21.5-20 6.8-13.3 12.8-28.7 12.8-28.7s-7.5 41.7 13 41.7c7.5 0 15-9.7 18.4-14.7v.1s.2-.3.6-1c.8-1.2 1.2-1.9 1.2-1.9v-.2c3-5.2 9.7-17.1 19.7-36.8 12.9-25.4 25.3-57.2 25.3-57.2s1.2 7.8 4.9 20.6c2.2 7.6 7 15.9 10.7 24-3 4.2-4.8 6.6-4.8 6.6l.1.1c-2.4 3.2-5.1 6.6-7.9 10-10.2 12.2-22.4 26.1-24 30.1-1.9 4.7-1.5 8.2 2.2 11 2.7 2 7.5 2.4 12.6 2 9.2-.6 15.6-2.9 18.8-4.3 5-1.8 10.7-4.5 16.2-8.5 10-7.4 16.1-17.9 15.5-31.9-.3-7.7-2.8-15.3-5.9-22.5.9-1.3 1.8-2.6 2.7-4 15.8-23.1 28-48.5 28-48.5s1.2 7.8 4.9 20.6c1.9 6.5 5.7 13.6 9.1 20.6-14.8 12.1-24.1 26.1-27.3 35.3-5.9 17-1.3 24.7 7.4 26.5 3.9.8 9.5-1 13.7-2.8 5.2-1.7 11.5-4.6 17.3-8.9 10-7.4 19.6-17.7 19.1-31.6-.3-6.4-2-12.7-4.3-18.7 12.6-5.2 28.9-8.2 49.6-5.7 44.5 5.2 53.3 33 51.6 44.6-1.7 11.6-11 18-14.1 20-3.1 1.9-4.1 2.6-3.8 4 .4 2.1 1.8 2 4.5 1.6 3.7-.6 23.4-9.5 24.2-30.9 1.2-27.5-24.9-57.5-71.2-57.2zm-343.2 115.7c-14.7 16.1-35.4 22.2-44.2 17-9.5-5.5-5.8-29.2 12.3-46.3 11-10.4 25.3-20 34.7-25.9 2.1-1.3 5.3-3.2 9.1-5.5.6-.4 1-.6 1-.6.7-.4 1.5-.9 2.3-1.4 6.7 24.4.3 45.8-15.2 62.7zm107.5-73.1c-5.1 12.5-15.9 44.6-22.4 42.8-5.6-1.5-9-25.8-1.1-49.8 4-12.1 12.5-26.5 17.5-32.1 8.1-9 16.9-12 19.1-8.3 2.6 4.8-9.9 39.6-13.1 47.4zm88.7 42.4c-2.2 1.1-4.2 1.9-5.1 1.3-.7-.4.9-1.9.9-1.9s11.1-11.9 15.5-17.4c2.5-3.2 5.5-6.9 8.7-11.1v1.2c0 14.4-13.8 24-20 27.9zm68.4-15.6c-1.6-1.2-1.4-4.9 4-16.5 2.1-4.6 6.9-12.3 15.2-19.6 1 3 1.6 5.9 1.5 8.6-.1 18-12.9 24.7-20.7 27.5z"/></symbol>
  <symbol id="responsive" viewBox="0 0 72 72"><title>responsive</title><path d="M31,50.26H35.9a1,1,0,0,0,0-2H31a1,1,0,0,0,0,2Z"/><path d="M69.26,40.64V28.27a3,3,0,0,0-1.4-2.5V10.92a3,3,0,0,0-3-3H3a3,3,0,0,0-3,3V53.21a3,3,0,0,0,3,3H25.57v5.9H19.18a1,1,0,1,0,0,2H69a3,3,0,0,0,3-3V43.57A3,3,0,0,0,69.26,40.64ZM40.32,62.06H27.54v-5.9H40.32Zm0-7.87H3a1,1,0,0,1-1-1V44.85H40.32Zm0-25.92V42.88H2v-32a1,1,0,0,1,1-1h62a1,1,0,0,1,1,1v14.4H43.27A3,3,0,0,0,40.32,28.27ZM58.69,62.06H43.27a1,1,0,0,1-1-1V28.27a1,1,0,0,1,1-1h23a1,1,0,0,1,1,1V40.62h-5.8a3,3,0,0,0-3,3V61.08A3,3,0,0,0,58.69,62.06Zm11.32-1a1,1,0,0,1-1,1H61.47a1,1,0,0,1-1-1V43.57a1,1,0,0,1,1-1H69a1,1,0,0,1,1,1Z"/><path d="M65.7,59.47h-.79a1,1,0,0,0,0,2h.79a1,1,0,1,0,0-2Z"/><path d="M54.8,59H54a1,1,0,1,0,0,2h.79a1,1,0,0,0,0-2Z"/></symbol>
  <symbol id="layout" viewBox="0 0 52 52"><title>layout</title><path d="M30.25,16.8H52V4.95H30.25Zm1.4-10.46h19V15.4h-19Z"/><path d="M30.25,32.11H52V20.26H30.25Zm1.4-10.46h19v9.06h-19Z"/><path d="M27.45,4.95H0V32.11H27.45ZM12.7,18.58,1.4,29.78V7.38ZM2.33,6.35H25l-11.3,11.2ZM13.72,19.51,25,30.71H2.33Zm.93-.93L26,7.38V29.78Z"/><path d="M0,47.05H15.78V35.2H0ZM1.4,36.6h13v9.06H1.4Z"/><path d="M18.11,47.05H33.89V35.2H18.11Zm1.4-10.46h13v9.06h-13Z"/><path d="M36.22,47.05H52V35.2H36.22Zm1.4-10.46h13v9.06h-13Z"/></symbol>
  <symbol id="settings" viewBox="0 0 96 96"><title>settings</title><path d="M89,47.89a10.41,10.41,0,0,0-9-10.24V12.48a1.5,1.5,0,0,0-3,0V37.65a10.33,10.33,0,0,0,0,20.48V83.52a1.5,1.5,0,0,0,3,0V58.13A10.41,10.41,0,0,0,89,47.89Zm-10.5,7.4a7.4,7.4,0,1,1,7.5-7.4A7.46,7.46,0,0,1,78.47,55.29Z"/><path d="M49.5,20.24V12.48a1.5,1.5,0,0,0-3,0v7.76a10.33,10.33,0,0,0,0,20.48v42.8a1.5,1.5,0,0,0,3,0V40.72a10.33,10.33,0,0,0,0-20.48ZM48,37.88a7.4,7.4,0,1,1,7.5-7.4A7.46,7.46,0,0,1,48,37.88Z"/><path d="M19,52.62V12.48a1.5,1.5,0,0,0-3,0V52.62a10.33,10.33,0,0,0,0,20.48V83.52a1.5,1.5,0,0,0,3,0V73.11a10.33,10.33,0,0,0,0-20.48Zm-1.5,17.64a7.4,7.4,0,1,1,7.5-7.4A7.46,7.46,0,0,1,17.53,70.26Z"/></symbol>
  <symbol id="rtl" viewBox="0 0 96 96"><title>rtl</title><path d="M32.67,13.55a1.46,1.46,0,0,0-.88.35L12.07,32.17a1.46,1.46,0,0,0,0,2.23L31.79,52.66a1.46,1.46,0,1,0,1.88-2.23h0L17,34.75H74a1.46,1.46,0,1,0,0-2.92H17l16.7-15.7a1.46,1.46,0,0,0-1-2.58Z"/><path d="M63.16,47a1.46,1.46,0,0,0-.8,2.58l16.7,15.7H21.9a1.46,1.46,0,0,0,.15,2.92h57L62.36,83.87a1.46,1.46,0,0,0,1.88,2.23h0L84,67.84a1.46,1.46,0,0,0,0-2.23L64.24,47.35A1.46,1.46,0,0,0,63.16,47Z"/></symbol>
  <symbol id="powered-by-liip" viewBox="0 0 857.8 79.5"><path d="M0 4h23c16.5 0 24.4 8.2 24.4 21.7S39.3 48 21.8 48h-14v29H0V4zm7.8 6.9v30.4h13.8c12.2 0 18-5.5 18-15.4s-5.2-15-17.1-15H7.8zM91 2.7c18.6 0 32.2 12.7 32.2 37 0 26.7-14 38.5-32.7 38.5-18.9 0-32.8-12-32.8-38.5 0-24.4 13.9-37 33.3-37zm-.3 68.5c14.7 0 24.3-10 24.3-31.5 0-19.4-9.8-29.8-24.3-29.8C75.6 9.9 66 20.5 66 39.6c0 21.3 9.8 31.6 24.7 31.6zM128.8 4h7.9l16.7 63 16.5-63h7.7l16.6 63.1L210.5 4h8l-19.4 73h-9l-16.4-61.5L157.3 77h-9.1L128.8 4zM228.9 4h45.6v7h-37.8v25.1h34.4v7h-34.4v27h38.6V77h-46.4V4zM311.9 4c17.1 0 24.8 8.1 24.8 21 0 9.1-3.7 16.2-12.3 20.3L340.8 77h-8.5l-15.5-30c-2.3.5-4.8.7-7.8.7h-12.3v29.2H289V4h22.9zm-15.1 6.9v30.3h13.5c12.2 0 18.5-5.5 18.5-15.6 0-9.7-5.3-14.7-17.1-14.7h-14.9zM352.6 4h45.6v7h-37.8v25.1h34.5v7h-34.5v27H399V77h-46.4V4zM433.1 4C456.3 4 469 15.6 469 40.6c0 25.8-12.8 36.4-37 36.4h-19.3V4h20.4zm-12.6 7.1v58.8h13.1c19.2 0 27.2-10.1 27.2-29.3 0-18.9-8-29.5-27.2-29.5h-13.1zM503.6 4h24.8c16.2 0 22.9 6.6 22.9 17.9 0 7.1-3.7 15.1-13.4 16.5v.2c12.7 1.2 16.9 10.2 16.9 17.4 0 15.7-11.7 20.9-27.3 20.9h-24V4zm7.8 6.8V36h14.1c9.4 0 17.8-2.6 17.8-13.3 0-8.9-6.1-12-16.3-12h-15.6zm0 59.3h18.3c11.5 0 17.1-5.7 17.1-14.5 0-9.8-7.4-12.9-18.1-12.9h-17.3v27.4zM580.6 46L557.3 4h8.7l18.6 34.2L603.4 4h8.7l-23.6 42v30.9h-7.9V46z"/><path transform="rotate(-63.115 766.155 39.788)" d="M726.1 30.8h80.1v18h-80.1z"/><path transform="rotate(-63.115 724.408 39.775)" d="M684.4 30.8h80.1v18h-80.1z"/><path d="M821.8 50.9h11c16.3 0 25-11.5 25-23.6 0-12-8.7-23.6-25-23.6h-29v73.2h18v-26zm0-30.9H832c4.9 0 7.8 3.6 7.8 7.4 0 3.8-2.9 7.4-7.8 7.4h-10.2V20zM686.9 61h-30.8V3.8h-18v73.3h48.8z"/></symbol>
</svg>